<?xml version="1.0" encoding="UTF-8" standalone="no"?>
<svg
   xmlns:dc="http://purl.org/dc/elements/1.1/"
   xmlns:cc="http://creativecommons.org/ns#"
   xmlns:rdf="http://www.w3.org/1999/02/22-rdf-syntax-ns#"
   xmlns:svg="http://www.w3.org/2000/svg"
   xmlns="http://www.w3.org/2000/svg"
   xmlns:sodipodi="http://sodipodi.sourceforge.net/DTD/sodipodi-0.dtd"
   xmlns:inkscape="http://www.inkscape.org/namespaces/inkscape"
   width="310"
   height="40"
   viewBox="0 0 82.020835 10.583333"
   version="1.1"
   id="svg8"
   inkscape:version="1.0.1 (3bc2e813f5, 2020-09-07)"
   sodipodi:docname="logo_long_dark_path.svg">
  <style
     id="style833"></style>
  <defs
     id="defs2" />
  <sodipodi:namedview
     id="base"
     pagecolor="#ffffff"
     bordercolor="#666666"
     borderopacity="1.0"
     inkscape:pageopacity="0.0"
     inkscape:pageshadow="2"
     inkscape:zoom="2.8"
     inkscape:cx="162.06804"
     inkscape:cy="6.3990584"
     inkscape:document-units="mm"
     inkscape:current-layer="g871"
     inkscape:document-rotation="0"
     showgrid="false"
     inkscape:window-width="1920"
     inkscape:window-height="1027"
     inkscape:window-x="-8"
     inkscape:window-y="79"
     inkscape:window-maximized="1"
     units="px" />
  <metadata
     id="metadata5">
    <rdf:RDF>
      <cc:Work
         rdf:about="">
        <dc:format>image/svg+xml</dc:format>
        <dc:type
           rdf:resource="http://purl.org/dc/dcmitype/StillImage" />
        <dc:title></dc:title>
      </cc:Work>
    </rdf:RDF>
  </metadata>
  <g
     inkscape:label="Ebene 1"
     inkscape:groupmode="layer"
     id="layer1">
    <g
       id="g847"
       transform="translate(-51.073744,-143.49999)">
      <g
         id="g864"
         transform="translate(1.4843159,-1.0795164)">
        <g
           id="g871"
           transform="translate(-1.0394236)">
          <g
             aria-label="Boshold"
             id="text837"
             style="font-style:normal;font-variant:normal;font-weight:normal;font-stretch:normal;font-size:10.5833px;line-height:1.25;font-family:'JetBrainsMono Nerd Font';-inkscape-font-specification:'JetBrainsMono Nerd Font';fill:#b4befe;fill-opacity:1;stroke-width:0.264583">
            <path
               d="m 87.560382,153.97749 v -7.72581 h 2.370659 q 1.111247,0 1.767411,0.53975 0.666748,0.53975 0.666748,1.44991 0,0.635 -0.370415,1.09008 -0.359832,0.45509 -0.941914,0.55034 v 0.0212 q 0.433915,0.0529 0.772581,0.3175 0.338666,0.254 0.529165,0.66675 0.190499,0.40217 0.190499,0.889 0,0.66674 -0.306915,1.16416 -0.306916,0.49742 -0.867831,0.77258 -0.560915,0.26458 -1.322912,0.26458 z m 1.291163,-4.54023 h 1.05833 q 0.518581,0 0.825497,-0.27517 0.306916,-0.28575 0.306916,-0.77258 0,-0.47625 -0.306916,-0.75141 -0.296332,-0.28575 -0.825497,-0.28575 h -1.05833 z m 0,3.43957 h 1.12183 q 0.582081,0 0.910163,-0.30692 0.338666,-0.31749 0.338666,-0.85724 0,-0.53975 -0.338666,-0.86783 -0.328082,-0.33867 -0.910163,-0.33867 h -1.12183 z"
               style="font-style:normal;font-variant:normal;font-weight:bold;font-stretch:normal;font-family:'JetBrainsMono Nerd Font';-inkscape-font-specification:'JetBrainsMono Nerd Font Bold';fill:#b4befe;fill-opacity:1;stroke-width:0.264583"
               id="path884" />
            <path
               d="m 96.270422,154.07274 q -1.12183,0 -1.777995,-0.62441 -0.656164,-0.635 -0.656164,-1.70391 v -1.35467 q 0,-1.07949 0.656164,-1.70391 0.656165,-0.62441 1.777995,-0.62441 1.121829,0 1.777994,0.62441 0.656165,0.62442 0.656165,1.70391 v 1.35467 q 0,1.06891 -0.656165,1.70391 -0.656165,0.62441 -1.777994,0.62441 z m 0,-1.15358 q 0.529165,0 0.814914,-0.28575 0.296332,-0.29633 0.296332,-0.84666 v -1.43933 q 0,-0.55033 -0.296332,-0.83608 -0.285749,-0.29633 -0.814914,-0.29633 -0.529165,0 -0.825498,0.29633 -0.285749,0.28575 -0.285749,0.83608 v 1.43933 q 0,0.55033 0.285749,0.84666 0.296333,0.28575 0.825498,0.28575 z"
               style="letter-spacing:0px;fill:#b4befe;fill-opacity:1"
               id="path886" />
            <path
               d="m 102.37697,154.07274 q -1.03716,0 -1.64041,-0.46566 -0.60325,-0.47625 -0.60325,-1.28058 h 1.30175 q 0,0.33866 0.24341,0.51858 0.254,0.17992 0.6985,0.17992 h 0.46566 q 0.47625,0 0.73025,-0.17992 0.26458,-0.17992 0.26458,-0.51858 0,-0.3175 -0.17991,-0.46567 -0.17992,-0.15875 -0.55033,-0.21166 l -1.44991,-0.1905 q -0.6985,-0.0953 -1.0795,-0.53975 -0.37042,-0.4445 -0.37042,-1.15358 0,-0.8255 0.55033,-1.25941 0.55034,-0.4445 1.5875,-0.4445 h 0.48683 q 0.97366,0 1.56633,0.4445 0.59266,0.4445 0.61383,1.18533 h -1.31233 q -0.0106,-0.27517 -0.24341,-0.43392 -0.23284,-0.16933 -0.62442,-0.16933 h -0.48683 q -0.42333,0 -0.64558,0.17991 -0.22225,0.16934 -0.22225,0.46567 0,0.26458 0.15875,0.39158 0.16933,0.127 0.48683,0.15875 l 1.36525,0.1905 q 0.80433,0.0952 1.20649,0.5715 0.41275,0.46566 0.41275,1.25941 0,0.84667 -0.58208,1.31233 -0.5715,0.45508 -1.68275,0.45508 z"
               style="letter-spacing:0px;fill:#b4befe;fill-opacity:1"
               id="path888" />
            <path
               d="m 106.61027,153.97749 v -7.72581 h 1.32292 v 1.905 l -0.0318,1.0795 q 0.10583,-0.55034 0.51858,-0.86784 0.41275,-0.31749 1.04774,-0.31749 0.85725,0 1.36525,0.57149 0.51858,0.5715 0.51858,1.53458 v 3.82057 h -1.32291 v -3.66182 q 0,-0.53975 -0.28575,-0.8255 -0.27517,-0.29633 -0.75141,-0.29633 -0.49742,0 -0.78317,0.29633 -0.27516,0.29634 -0.27516,0.84667 v 3.64065 z"
               style="letter-spacing:0px;fill:#b4befe;fill-opacity:1"
               id="path890" />
            <path
               d="m 115.32031,154.07274 q -1.12183,0 -1.77799,-0.62441 -0.65617,-0.635 -0.65617,-1.70391 v -1.35467 q 0,-1.07949 0.65617,-1.70391 0.65616,-0.62441 1.77799,-0.62441 1.12183,0 1.778,0.62441 0.65616,0.62442 0.65616,1.70391 v 1.35467 q 0,1.06891 -0.65616,1.70391 -0.65617,0.62441 -1.778,0.62441 z m 0,-1.15358 q 0.52917,0 0.81492,-0.28575 0.29633,-0.29633 0.29633,-0.84666 v -1.43933 q 0,-0.55033 -0.29633,-0.83608 -0.28575,-0.29633 -0.81492,-0.29633 -0.52916,0 -0.82549,0.29633 -0.28575,0.28575 -0.28575,0.83608 v 1.43933 q 0,0.55033 0.28575,0.84666 0.29633,0.28575 0.82549,0.28575 z"
               style="letter-spacing:0px;fill:#b4befe;fill-opacity:1"
               id="path892" />
            <path
               d="m 122.61219,153.97749 q -0.86783,0 -1.397,-0.51858 -0.51858,-0.51858 -0.51858,-1.36524 v -4.64607 h -1.91557 v -1.19592 h 3.23849 v 5.81024 q 0,0.32808 0.17991,0.52916 0.1905,0.1905 0.508,0.1905 h 1.70391 v 1.19591 z"
               style="letter-spacing:0px;fill:#b4befe;fill-opacity:1"
               id="path894" />
            <path
               d="m 127.49107,154.08333 q -0.84666,0 -1.37582,-0.60325 -0.51859,-0.60325 -0.51859,-1.61925 v -1.57691 q 0,-1.02658 0.51859,-1.62983 0.51858,-0.60324 1.37582,-0.60324 0.60325,0 1.016,0.30691 0.42333,0.30692 0.59267,0.85725 l -0.0423,-1.3335 v -1.62983 h 1.32291 v 7.72581 h -1.29116 v -1.05833 q -0.15875,0.55033 -0.5715,0.85725 -0.41274,0.30692 -1.02658,0.30692 z m 0.49742,-1.143 q 0.508,0 0.78316,-0.30692 0.28575,-0.30691 0.28575,-0.86783 v -1.39699 q 0,-0.56092 -0.28575,-0.86783 -0.27516,-0.30692 -0.78316,-0.30692 -0.508,0 -0.79375,0.27517 -0.27516,0.27516 -0.27516,0.84666 v 1.50283 q 0,0.5715 0.27516,0.84666 0.28575,0.27517 0.79375,0.27517 z"
               style="letter-spacing:0px;fill:#b4befe;fill-opacity:1"
               id="path896" />
          </g>
          <g
             aria-label="Kevin"
             id="text841"
             style="font-size:10.5833px;line-height:1.25;font-family:Quantico;-inkscape-font-specification:Quantico;fill:#b4befe;fill-opacity:1;stroke-width:0.264583">
            <path
               d="m 52.898222,153.97749 v -7.72581 h 1.322912 v 3.15383 h 0.910164 l 1.471079,-3.15383 h 1.428745 l -1.735661,3.68299 1.820328,4.04282 H 56.64471 l -1.523995,-3.4184 h -0.899581 v 3.4184 z"
               style="font-style:normal;font-variant:normal;font-weight:bold;font-stretch:normal;font-family:'JetBrainsMono Nerd Font';-inkscape-font-specification:'JetBrainsMono Nerd Font Bold';fill:#b4befe;fill-opacity:1;stroke-width:0.264583"
               id="path873" />
            <path
               d="m 61.629428,154.08333 q -0.740831,0 -1.291163,-0.28575 -0.550331,-0.28575 -0.857247,-0.80433 -0.296332,-0.52917 -0.296332,-1.23825 v -1.37583 q 0,-0.70908 0.296332,-1.22766 0.306916,-0.52917 0.857247,-0.81492 0.550332,-0.28574 1.291163,-0.28574 0.730248,0 1.269996,0.28574 0.550332,0.28575 0.846664,0.80434 0.306916,0.50799 0.306916,1.19591 v 1.05833 h -3.598322 v 0.40216 q 0,0.59267 0.306915,0.89958 0.306916,0.29634 0.867831,0.29634 0.412749,0 0.698498,-0.13759 0.296332,-0.14816 0.349249,-0.42333 h 1.312329 q -0.137583,0.75142 -0.783164,1.2065 -0.645582,0.4445 -1.576912,0.4445 z m -1.174746,-3.74649 v 0.20108 l 2.328326,-0.0106 v -0.20109 q 0,-0.60324 -0.296333,-0.93133 -0.296332,-0.32808 -0.857247,-0.32808 -0.582081,0 -0.878414,0.33867 -0.296332,0.32808 -0.296332,0.93133 z"
               style="font-style:normal;font-variant:normal;font-weight:bold;font-stretch:normal;font-family:'JetBrainsMono Nerd Font';-inkscape-font-specification:'JetBrainsMono Nerd Font Bold';fill:#b4befe;fill-opacity:1;stroke-width:0.264583"
               id="path875" />
            <path
               d="m 67.132728,153.97749 -1.957911,-5.82081 h 1.386413 l 1.121829,3.53482 q 0.105833,0.3175 0.179916,0.64558 0.08467,0.3175 0.116417,0.55033 0.04233,-0.23283 0.105833,-0.55033 0.07408,-0.32808 0.169332,-0.635 l 1.111247,-3.5454 h 1.396995 l -1.947327,5.82081 z"
               style="font-style:normal;font-variant:normal;font-weight:bold;font-stretch:normal;font-family:'JetBrainsMono Nerd Font';-inkscape-font-specification:'JetBrainsMono Nerd Font Bold';fill:#b4befe;fill-opacity:1;stroke-width:0.264583"
               id="path877" />
            <path
               d="m 71.948112,153.97749 v -1.19591 h 1.989661 v -3.42899 h -1.777995 v -1.19591 h 3.100907 v 4.6249 h 1.788578 v 1.19591 z m 2.561159,-6.79448 q -0.402165,0 -0.634998,-0.20108 -0.232833,-0.21166 -0.232833,-0.56091 0,-0.34925 0.232833,-0.55033 0.232833,-0.21167 0.634998,-0.21167 0.402165,0 0.634998,0.21167 0.232833,0.20108 0.232833,0.55033 0,0.34925 -0.232833,0.56091 -0.232833,0.20108 -0.634998,0.20108 z"
               style="font-style:normal;font-variant:normal;font-weight:bold;font-stretch:normal;font-family:'JetBrainsMono Nerd Font';-inkscape-font-specification:'JetBrainsMono Nerd Font Bold';fill:#b4befe;fill-opacity:1;stroke-width:0.264583"
               id="path879" />
            <path
               d="m 78.30866,153.97749 v -5.82081 h 1.291162 v 1.09008 q 0.105833,-0.55033 0.518582,-0.86783 0.412749,-0.32808 1.047747,-0.32808 0.857247,0 1.365245,0.57149 0.518582,0.5715 0.518582,1.53458 v 3.82057 h -1.322912 v -3.66182 q 0,-0.53975 -0.285749,-0.8255 -0.275166,-0.29633 -0.751415,-0.29633 -0.497415,0 -0.783164,0.29633 -0.275166,0.29634 -0.275166,0.84667 v 3.64065 z"
               style="font-style:normal;font-variant:normal;font-weight:bold;font-stretch:normal;font-family:'JetBrainsMono Nerd Font';-inkscape-font-specification:'JetBrainsMono Nerd Font Bold';fill:#b4befe;fill-opacity:1;stroke-width:0.264583"
               id="path881" />
          </g>
        </g>
      </g>
    </g>
  </g>
</svg>
