<svg xmlns="http://www.w3.org/2000/svg" width="52mm" height="10mm" viewBox="0 0 52 10"><g aria-label="boshold" style="font-style:normal;font-variant:normal;font-weight:400;font-stretch:normal;font-size:10.5833px;line-height:1.25;font-family:&quot;JetBrainsMono Nerd Font&quot;;-inkscape-font-specification:&quot;JetBrainsMono Nerd Font&quot;;fill:#1e66f5;fill-opacity:1;stroke-width:.264583"><path d="M62.215 152.416q-.614 0-1.027-.307-.412-.307-.571-.857v1.058h-1.291v-7.726h1.323v1.63l-.043 1.334q.17-.55.582-.858.424-.307 1.027-.307.857 0 1.376.604.518.603.518 1.63v1.576q0 1.016-.529 1.62-.519.603-1.365.603zm-.498-1.143q.508 0 .784-.275.285-.276.285-.847v-1.503q0-.571-.285-.847-.276-.275-.784-.275t-.793.307q-.275.307-.275.868v1.397q0 .561.275.868.285.307.793.307z" style="font-style:normal;font-variant:normal;font-weight:700;font-stretch:normal;font-family:&quot;JetBrainsMono Nerd Font&quot;;-inkscape-font-specification:&quot;JetBrainsMono Nerd Font Bold&quot;;fill:#1e66f5;fill-opacity:1;stroke-width:.264583" transform="translate(-51.074 -143.5)"/><path d="M68.036 152.405q-1.122 0-1.778-.624-.657-.635-.657-1.704v-1.355q0-1.08.657-1.704.656-.624 1.778-.624 1.121 0 1.778.624.656.625.656 1.704v1.355q0 1.069-.656 1.704-.657.624-1.778.624zm0-1.153q.529 0 .815-.286.296-.296.296-.847v-1.44q0-.55-.296-.835-.286-.297-.815-.297-.53 0-.826.297-.286.286-.286.836v1.44q0 .55.286.846.296.286.826.286zM74.142 152.405q-1.037 0-1.64-.465-.603-.477-.603-1.281H73.2q0 .339.244.519.254.18.698.18h.466q.476 0 .73-.18.265-.18.265-.519 0-.318-.18-.466-.18-.158-.55-.211l-1.45-.19q-.699-.096-1.08-.54-.37-.445-.37-1.154 0-.826.55-1.26.55-.444 1.587-.444h.487q.974 0 1.567.444.592.445.613 1.186h-1.312q-.01-.275-.243-.434-.233-.17-.625-.17h-.487q-.423 0-.645.18-.222.17-.222.466 0 .265.158.392.17.127.487.158l1.365.19q.805.096 1.207.572.413.466.413 1.26 0 .846-.582 1.312-.572.455-1.683.455zM78.375 152.31v-7.726h1.323v1.905l-.031 1.08q.105-.55.518-.868.413-.318 1.048-.318.857 0 1.365.572.519.571.519 1.534v3.821h-1.323v-3.662q0-.54-.286-.825-.275-.297-.751-.297-.498 0-.783.297-.276.296-.276.846v3.641zM87.086 152.405q-1.122 0-1.778-.624-.657-.635-.657-1.704v-1.355q0-1.08.657-1.704.656-.624 1.778-.624 1.121 0 1.778.624.656.625.656 1.704v1.355q0 1.069-.656 1.704-.657.624-1.778.624zm0-1.153q.529 0 .814-.286.297-.296.297-.847v-1.44q0-.55-.297-.835-.285-.297-.814-.297-.53 0-.826.297-.286.286-.286.836v1.44q0 .55.286.846.296.286.826.286zM94.377 152.31q-.867 0-1.397-.519-.518-.518-.518-1.365v-4.646h-1.916v-1.196h3.239v5.81q0 .328.18.53.19.19.508.19h1.704v1.196zM99.256 152.416q-.846 0-1.376-.603-.518-.604-.518-1.62v-1.577q0-1.026.518-1.63.519-.603 1.376-.603.604 0 1.016.307.424.307.593.857l-.042-1.333v-1.63h1.323v7.726h-1.292v-1.058q-.158.55-.571.857-.413.307-1.027.307zm.498-1.143q.508 0 .783-.307.286-.307.286-.868v-1.397q0-.56-.286-.868-.275-.307-.783-.307t-.794.276q-.275.275-.275.846v1.503q0 .571.275.847.286.275.794.275z" style="letter-spacing:0;fill:#1e66f5;fill-opacity:1" transform="translate(-51.074 -143.5)"/></g><g style="font-size:10.5833px;line-height:1.25;font-family:Quantico;-inkscape-font-specification:Quantico;stroke-width:.264583"><path d="M-56.333 144.637v4.561h.021l1.64-2.127h1.662l-1.894 2.36 2.212 2.932h-1.683l-1.376-1.873-.582.73v1.143h-1.45v-7.726z" aria-label="k" style="font-style:normal;font-variant:normal;font-weight:700;font-stretch:normal;font-family:Quantico;-inkscape-font-specification:&quot;Quantico Bold&quot;;fill:#8839ef;fill-opacity:1;stroke-width:.264583" transform="matrix(-1 0 0 1 -51.074 -143.5)"/></g></svg>