
SVGOMG
Powered by SVGO v3.0.0


Open SVG
Paste markup

Demo
Contribute



3.17k → 1.69k 53.35%
<svg xmlns="http://www.w3.org/2000/svg" width="310" height="40" viewBox="0 0 82.021 10.583"><g aria-label="Boshold" style="font-style:normal;font-variant:normal;font-weight:400;font-stretch:normal;font-size:10.5833px;line-height:1.25;font-family:&quot;JetBrainsMono Nerd Font&quot;;-inkscape-font-specification:&quot;JetBrainsMono Nerd Font&quot;;fill:#7287fd;fill-opacity:1;stroke-width:.264583"><path d="M87.56 153.977v-7.725h2.371q1.111 0 1.767.54.667.54.667 1.45 0 .634-.37 1.09-.36.455-.942.55v.021q.434.053.772.317.34.254.53.667.19.402.19.89 0 .666-.307 1.163-.307.498-.868.773-.56.265-1.323.265zm1.292-4.54h1.058q.518 0 .825-.275.307-.286.307-.772 0-.477-.307-.752-.296-.286-.825-.286h-1.058zm0 3.44h1.121q.582 0 .91-.307.34-.318.34-.857 0-.54-.34-.868-.328-.339-.91-.339h-1.121z" style="font-style:normal;font-variant:normal;font-weight:700;font-stretch:normal;font-family:&quot;JetBrainsMono Nerd Font&quot;;-inkscape-font-specification:&quot;JetBrainsMono Nerd Font Bold&quot;;fill:#7287fd;fill-opacity:1;stroke-width:.264583" transform="translate(-50.629 -144.58)"/><path d="M96.27 154.073q-1.121 0-1.778-.625-.656-.635-.656-1.704v-1.354q0-1.08.656-1.704.657-.625 1.778-.625 1.122 0 1.778.625.657.624.657 1.704v1.354q0 1.07-.657 1.704-.656.625-1.778.625zm0-1.154q.53 0 .815-.286.297-.296.297-.846v-1.44q0-.55-.297-.836-.285-.296-.815-.296-.529 0-.825.296-.286.286-.286.836v1.44q0 .55.286.846.296.286.825.286zM102.377 154.073q-1.037 0-1.64-.466-.604-.476-.604-1.28h1.302q0 .338.243.518.254.18.699.18h.466q.476 0 .73-.18.264-.18.264-.519 0-.317-.18-.465-.18-.159-.55-.212l-1.45-.19q-.698-.096-1.08-.54-.37-.445-.37-1.154 0-.825.55-1.26.551-.444 1.588-.444h.487q.974 0 1.566.445.593.444.614 1.185H103.7q-.01-.275-.244-.434-.232-.169-.624-.169h-.487q-.423 0-.645.18-.223.17-.223.466 0 .264.16.391.168.127.486.159l1.365.19q.805.096 1.207.572.412.466.412 1.26 0 .846-.582 1.312-.571.455-1.682.455zM106.61 153.977v-7.725h1.323v1.905l-.032 1.08q.106-.551.519-.869.413-.317 1.048-.317.857 0 1.365.571.519.572.519 1.535v3.82h-1.323v-3.661q0-.54-.286-.826-.275-.296-.752-.296-.497 0-.783.296-.275.297-.275.847v3.64zM115.32 154.073q-1.122 0-1.778-.625-.656-.635-.656-1.704v-1.354q0-1.08.656-1.704.656-.625 1.778-.625 1.122 0 1.778.625.656.624.656 1.704v1.354q0 1.07-.656 1.704-.656.625-1.778.625zm0-1.154q.53 0 .815-.286.297-.296.297-.846v-1.44q0-.55-.297-.836-.286-.296-.815-.296-.529 0-.825.296-.286.286-.286.836v1.44q0 .55.286.846.296.286.825.286zM122.612 153.977q-.868 0-1.397-.518-.518-.519-.518-1.365v-4.646h-1.916v-1.196h3.239v5.81q0 .328.18.53.19.19.507.19h1.704v1.195zM127.491 154.083q-.847 0-1.376-.603-.518-.603-.518-1.62v-1.576q0-1.027.518-1.63.519-.603 1.376-.603.603 0 1.016.307.423.307.593.857l-.043-1.333v-1.63h1.323v7.725h-1.29v-1.058q-.16.55-.572.857-.413.307-1.027.307zm.497-1.143q.508 0 .784-.307.285-.307.285-.867v-1.397q0-.561-.285-.868-.276-.307-.784-.307t-.793.275q-.275.275-.275.847v1.503q0 .571.275.846.285.275.793.275z" style="letter-spacing:0;fill:#7287fd;fill-opacity:1" transform="translate(-50.629 -144.58)"/></g><g aria-label="Kevin" style="font-size:10.5833px;line-height:1.25;font-family:Quantico;-inkscape-font-specification:Quantico;fill:#7287fd;fill-opacity:1;stroke-width:.264583"><path d="M52.898 153.977v-7.725h1.323v3.154h.91l1.471-3.154h1.43l-1.737 3.683 1.82 4.042h-1.47l-1.524-3.418h-.9v3.418zM61.63 154.083q-.741 0-1.292-.285-.55-.286-.857-.805-.296-.529-.296-1.238v-1.376q0-.709.296-1.227.307-.53.857-.815.55-.286 1.291-.286.73 0 1.27.286.55.285.847.804.307.508.307 1.196v1.058h-3.598v.402q0 .593.307.9.307.296.867.296.413 0 .699-.137.296-.148.35-.424h1.312q-.138.752-.784 1.207-.645.444-1.577.444zm-1.175-3.746v.2l2.328-.01v-.2q0-.604-.296-.932-.297-.328-.858-.328-.582 0-.878.338-.296.329-.296.932zM67.133 153.977l-1.958-5.82h1.386l1.122 3.534q.106.318.18.646.085.318.116.55.043-.232.106-.55.074-.328.17-.635l1.11-3.545h1.398l-1.948 5.82zM71.948 153.977v-1.195h1.99v-3.43H72.16v-1.195h3.1v4.625h1.79v1.195zm2.561-6.794q-.402 0-.635-.201-.233-.212-.233-.561 0-.35.233-.55.233-.212.635-.212t.635.212q.233.2.233.55 0 .35-.233.56-.233.202-.635.202zM78.309 153.977v-5.82h1.29v1.09q.107-.55.52-.868.412-.328 1.047-.328.857 0 1.365.571.519.572.519 1.535v3.82h-1.323v-3.661q0-.54-.286-.826-.275-.296-.751-.296-.498 0-.783.296-.275.297-.275.847v3.64z" style="font-style:normal;font-variant:normal;font-weight:700;font-stretch:normal;font-family:&quot;JetBrainsMono Nerd Font&quot;;-inkscape-font-specification:&quot;JetBrainsMono Nerd Font Bold&quot;;fill:#7287fd;fill-opacity:1;stroke-width:.264583" transform="translate(-50.629 -144.58)"/></g></svg>