<?xml version="1.0" encoding="UTF-8" standalone="no"?>
<!-- Created with Inkscape (http://www.inkscape.org/) -->

<svg
   width="440"
   height="20"
   viewBox="0 0 116.41666 5.2916667"
   version="1.1"
   id="svg5"
   inkscape:version="1.2.1 (9c6d41e410, 2022-07-14)"
   sodipodi:docname="main_rulers.svg"
   xmlns:inkscape="http://www.inkscape.org/namespaces/inkscape"
   xmlns:sodipodi="http://sodipodi.sourceforge.net/DTD/sodipodi-0.dtd"
   xmlns="http://www.w3.org/2000/svg"
   xmlns:svg="http://www.w3.org/2000/svg">
  <sodipodi:namedview
     id="namedview7"
     pagecolor="#ffffff"
     bordercolor="#000000"
     borderopacity="0.25"
     inkscape:showpageshadow="2"
     inkscape:pageopacity="0.0"
     inkscape:pagecheckerboard="0"
     inkscape:deskcolor="#d1d1d1"
     inkscape:document-units="mm"
     showgrid="false"
     inkscape:zoom="2.8284271"
     inkscape:cx="406.40963"
     inkscape:cy="61.518291"
     inkscape:window-width="2560"
     inkscape:window-height="1369"
     inkscape:window-x="1912"
     inkscape:window-y="-8"
     inkscape:window-maximized="1"
     inkscape:current-layer="g3656" />
  <defs
     id="defs2" />
  <g
     inkscape:label="Ebene 1"
     inkscape:groupmode="layer"
     id="layer1">
    <g
       aria-label="boshold"
       id="text553"
       style="font-size:4.7625px;font-family:Southland;-inkscape-font-specification:Southland;text-align:center;text-anchor:middle;stroke-width:0.25" />
    <g
       id="g3656"
       transform="translate(-0.29759937,0.31286534)">
      <g
         id="g1607"
         style="fill:#b4befe;fill-opacity:1;stroke:#b4befe;stroke-opacity:1;stroke-width:0.1;stroke-dasharray:none">
        <path
           d="m 84.558568,4.0260354 h 0.0048 q 0.09525,0 0.219075,-0.123825 0.123825,-0.1190625 0.242887,-0.276225 0.119063,-0.1571625 0.195263,-0.2905124 0.0762,-0.1285875 0.0762,-0.1476375 0,-0.00476 -0.0048,-0.00476 -0.0381,0 -0.233362,0.123825 -0.195263,0.1238249 -0.376238,0.3047999 -0.180975,0.180975 -0.180975,0.36195 0,0.023813 0.01905,0.0381 0.01429,0.014288 0.0381,0.014288 z m 1.147763,-3.63378733 q -0.08573,0 -0.271463,0.32384999 -0.185737,0.32384994 -0.381,0.75723744 -0.195262,0.428625 -0.338137,0.8001 -0.138113,0.371475 -0.138113,0.4619625 0,0.00953 0.0095,0.00953 0.05715,0 0.238125,-0.2524125 0.180975,-0.2524125 0.385763,-0.62865 0.204787,-0.3762375 0.357187,-0.7667625 0.1524,-0.39528744 0.1524,-0.67151243 0,-0.0333375 -0.0095,-0.0333375 z m 0.833437,2.42411243 q 0,0.00953 -0.1524,0.0381 -0.3048,0.052388 -0.78105,0.20955 -0.07144,0.023813 -0.109537,0.061912 -0.03334,0.042863 -0.08096,0.13335 -0.0048,0.014288 -0.01429,0.028575 -0.47625,0.8477249 -0.814388,0.8477249 h -0.01429 q -0.05715,0 -0.109538,-0.047625 -0.04762,-0.05715 -0.04762,-0.1190625 0,-0.1762125 0.24765,-0.4429125 0.252413,-0.2619374 0.600075,-0.4333874 0.1143,-0.061913 0.166688,-0.2047875 0.05715,-0.1381125 0.07144,-0.2714625 0.01905,-0.13335 0.01905,-0.1571625 0,-0.05715 -0.01905,-0.09525 -0.01905,-0.042863 -0.06191,-0.042863 -0.109538,0 -0.252413,0.1381125 -0.138112,0.13335 -0.276225,0.32385 -0.138112,0.1857375 -0.257175,0.36195 -0.09525,0.1381125 -0.161925,0.2286 -0.06668,0.09525 -0.09525,0.09525 -0.03334,0 -0.06191,-0.05715 -0.02858,-0.052387 -0.02858,-0.1571624 0,-0.276225 0.157162,-0.771525 0.161925,-0.5000625 0.395288,-1.00965 0.233362,-0.51434995 0.466725,-0.87629994 0.238125,-0.36194998 0.390525,-0.36194998 0.100012,0 0.100012,0.17144999 0,0.25241249 -0.200025,0.75723743 -0.195262,0.5000625 -0.471487,0.97155 -0.271463,0.4714875 -0.528638,0.6810375 -0.06191,0.052388 -0.09525,0.1524 -0.03334,0.1000125 -0.04762,0.1905 -0.0095,0.090488 -0.0095,0.1095375 v 0.00476 l 0.0381,-0.05715 q 0.0762,-0.123825 0.242888,-0.3571875 0.166687,-0.2286 0.357187,-0.428625 0.195263,-0.200025 0.3429,-0.200025 0.195263,0 0.195263,0.3000375 -0.0095,0.2333625 -0.09049,0.4572 l 0.01905,-0.00476 q 0.09525,-0.028575 0.381,-0.1000125 0.290513,-0.071438 0.528638,-0.071438 h 0.05239 q 0,0.00476 0.0048,0.00476 z"
           style="font-size:4.7625px;font-family:Bacalisties;-inkscape-font-specification:Bacalisties;text-align:center;text-anchor:middle;stroke-width:0.1;fill:#b4befe;fill-opacity:1;stroke:#b4befe;stroke-opacity:1;stroke-dasharray:none"
           id="path3611" />
        <path
           d="m 86.554058,3.392623 q 0.05239,0 0.128588,-0.080963 0.08096,-0.080963 0.142875,-0.219075 0.06191,-0.1381125 0.06191,-0.3048 V 2.763973 q 0,-0.023813 -0.0095,-0.052388 -0.0095,-0.033338 -0.02858,-0.05715 -0.01429,-0.023813 -0.04762,-0.023813 -0.04286,0 -0.119062,0.123825 -0.07144,0.1190625 -0.128588,0.2714625 -0.05715,0.1571625 -0.05715,0.2619375 0,0.1000125 0.05715,0.104775 z m 1.281113,-0.5857875 q 0.04286,0 0.04286,0.01905 0,0.00953 -0.02381,0.023813 -0.02381,0.01905 -0.08096,0.033338 -0.05715,0.014288 -0.161925,0.014288 -0.242887,0 -0.395287,-0.0762 -0.147638,-0.071438 -0.214313,-0.1285875 -0.0381,-0.033338 -0.05239,-0.033338 -0.0048,0.00476 -0.0095,0.00953 0,0 0,0.00476 0.02381,0.066675 0.02858,0.142875 0,0.2667 -0.157163,0.4619625 -0.157162,0.2000249 -0.3048,0.2000249 -0.1524,0 -0.157162,-0.2333624 0.0048,-0.1905 0.09525,-0.3857625 0.09049,-0.1905 0.219075,-0.28575 0,-0.00476 0.0048,-0.00476 0.02858,-0.023813 0.0381,-0.033338 0.01429,-0.00953 0.01429,-0.023813 v -0.00476 q 0,-0.00953 0,-0.028575 0.0048,-0.023813 0.01429,-0.0381 0.0095,-0.01905 0.02858,-0.01905 0.05239,0 0.157163,0.104775 0.104775,0.09525 0.271462,0.2047875 0.17145,0.104775 0.409575,0.104775 0.1143,0 0.161925,-0.01905 0.0381,-0.00953 0.07144,-0.00953 z"
           style="font-size:4.7625px;font-family:Bacalisties;-inkscape-font-specification:Bacalisties;text-align:center;text-anchor:middle;stroke-width:0.1;fill:#b4befe;fill-opacity:1;stroke:#b4befe;stroke-opacity:1;stroke-dasharray:none"
           id="path3613" />
        <path
           d="m 87.711345,4.0736604 q 0.09525,-0.00953 0.214313,-0.1143 0.119062,-0.104775 0.20955,-0.2333625 0.09049,-0.1285875 0.09525,-0.2047875 v -0.01905 h -0.0048 q -0.01905,0 -0.100012,0.0762 -0.08096,0.0762 -0.176213,0.1762125 -0.09525,0.104775 -0.166687,0.1952625 -0.0762,0.090487 -0.0762,0.1190625 z m 0.20955,-1.3049249 q 0,0.01905 0.01429,0.01905 0.03334,0 0.166687,-0.071438 0.13335,-0.0762 0.28575,-0.1762125 0.157163,-0.104775 0.271463,-0.200025 0.1143,-0.09525 0.1143,-0.1381125 0,-0.028575 -0.02857,-0.028575 h -0.0095 q -0.07144,0 -0.271463,0.1095375 -0.195262,0.104775 -0.371475,0.24765 -0.17145,0.1381125 -0.17145,0.238125 z m 1.557338,0.047625 q 0.02381,0 0.04286,0.00476 0,0.00476 -0.0762,0.028575 -0.128587,0.0381 -0.409575,0.1571625 -0.280987,0.123825 -0.642937,0.3667125 -0.01905,0.2714624 -0.1524,0.4524374 -0.13335,0.180975 -0.28575,0.2714625 -0.1524,0.090488 -0.214313,0.090488 -0.05715,0 -0.09525,-0.0381 -0.02858,-0.033338 -0.02858,-0.0762 v -0.01905 q 0,-0.09525 0.123825,-0.2238375 0.119063,-0.1285875 0.257175,-0.24765 0.09525,-0.085725 0.161925,-0.1524 0.06668,-0.066675 0.06668,-0.1000124 0,-0.0381 -0.05239,-0.090488 -0.04763,-0.047625 -0.119063,-0.104775 -0.100012,-0.0762 -0.1905,-0.17145 -0.08572,-0.090488 -0.08572,-0.200025 0,-0.1905 0.180975,-0.3476625 0.185738,-0.1571625 0.409575,-0.2524125 0.2286,-0.1000125 0.357188,-0.1000125 0.142875,0 0.157162,0.1143 0,0.066675 -0.13335,0.1952625 -0.13335,0.1285875 -0.32385,0.257175 -0.185737,0.1285875 -0.366712,0.200025 -0.0095,0.00476 -0.01429,0.00476 -0.04762,0.01905 -0.04762,0.0381 0,0.0381 0.100013,0.104775 0.06667,0.052388 0.142875,0.123825 0.0762,0.071437 0.123825,0.17145 h 0.0048 q 0,-0.00476 0.0048,-0.00476 0.02381,-0.014288 0.119062,-0.066675 0.123825,-0.066675 0.3048,-0.1571625 0.180975,-0.090488 0.357188,-0.161925 0.180975,-0.071438 0.28575,-0.071438 0.01905,0 0.0381,0.00476 z"
           style="font-size:4.7625px;font-family:Bacalisties;-inkscape-font-specification:Bacalisties;text-align:center;text-anchor:middle;stroke-width:0.1;fill:#b4befe;fill-opacity:1;stroke:#b4befe;stroke-opacity:1;stroke-dasharray:none"
           id="path3615" />
        <path
           d="m 90.868883,0.48749807 q -0.1143,0 -0.32385,0.32861248 -0.204787,0.32384995 -0.4191,0.75247495 -0.214312,0.4238625 -0.366712,0.7762875 -0.1524,0.352425 -0.1524,0.40005 0,0.00476 0.0048,0.00476 0.01429,0 0.214313,-0.2809875 0.200025,-0.2809875 0.447675,-0.66675 0.252412,-0.390525 0.442912,-0.7477125 0.195263,-0.35718744 0.195263,-0.50482494 0,-0.0333375 -0.01429,-0.047625 -0.01429,-0.0142875 -0.02858,-0.0142875 z M 91.730896,2.811598 q 0.0095,0 0.0095,0.00476 0,0.00476 -0.08572,0.104775 -0.08096,0.104775 -0.214313,0.2286 -0.128587,0.1285875 -0.280987,0.2238375 -0.1524,0.09525 -0.295275,0.1000124 -0.109538,0 -0.17145,-0.066675 -0.05715,-0.061912 -0.09049,-0.1619249 -0.02858,-0.09525 -0.04286,-0.1905 -0.01905,-0.1095375 -0.04762,-0.1857375 -0.02381,-0.071438 -0.08572,-0.071438 -0.100013,0 -0.280988,0.200025 -0.176212,0.2047875 -0.366712,0.4429124 -0.157163,0.1952625 -0.280988,0.3381375 -0.123825,0.142875 -0.180975,0.142875 -0.02381,0 -0.04286,-0.00953 -0.06191,-0.05715 -0.06191,-0.20955 0,-0.3047999 0.1905,-0.8572499 0.1905,-0.5476875 0.466725,-1.1096625 0.280988,-0.5667375 0.561975,-0.96202494 0.28575,-0.40004999 0.466725,-0.40004999 0.109538,0 0.109538,0.123825 v 0.009525 q 0,0.31432498 -0.447675,1.05727493 -0.447675,0.7381875 -0.923925,1.266825 -0.01429,0.01905 -0.02858,0.033338 -0.0381,0.0381 -0.05715,0.061913 -0.01905,0.028575 -0.0381,0.071438 -0.01429,0.047625 -0.03334,0.13335 -0.09525,0.4571999 -0.09525,0.5667374 0,0.01905 0.0048,0.033338 0,0.014288 0,0.01905 v 0.00476 q 0.01429,0 0.06667,-0.066675 0.05239,-0.061913 0.128587,-0.161925 0.123825,-0.1666874 0.28575,-0.3619499 0.161925,-0.1952625 0.32385,-0.3429 0.166688,-0.1476375 0.290513,-0.1476375 0.104775,0 0.147637,0.104775 0.04762,0.104775 0.0762,0.238125 0.02858,0.142875 0.0762,0.2524125 0.05239,0.1143 0.17145,0.1143 0.08573,0 0.2286,-0.1190625 0.142875,-0.1143 0.28575,-0.24765 0.09525,-0.085725 0.161925,-0.1476375 0.07144,-0.05715 0.100013,-0.05715 z"
           style="font-size:4.7625px;font-family:Bacalisties;-inkscape-font-specification:Bacalisties;text-align:center;text-anchor:middle;stroke-width:0.1;fill:#b4befe;fill-opacity:1;stroke:#b4befe;stroke-opacity:1;stroke-dasharray:none"
           id="path3617" />
        <path
           d="m 91.735655,3.392623 q 0.05239,0 0.128588,-0.080963 0.08096,-0.080963 0.142875,-0.219075 0.06191,-0.1381125 0.06191,-0.3048 V 2.763973 q 0,-0.023813 -0.0095,-0.052388 -0.0095,-0.033338 -0.02858,-0.05715 -0.01429,-0.023813 -0.04762,-0.023813 -0.04286,0 -0.119062,0.123825 -0.07144,0.1190625 -0.128588,0.2714625 -0.05715,0.1571625 -0.05715,0.2619375 0,0.1000125 0.05715,0.104775 z m 1.281112,-0.5857875 q 0.04286,0 0.04286,0.01905 0,0.00953 -0.02381,0.023813 -0.02381,0.01905 -0.08096,0.033338 -0.05715,0.014288 -0.161925,0.014288 -0.242887,0 -0.395287,-0.0762 -0.147638,-0.071438 -0.214313,-0.1285875 -0.0381,-0.033338 -0.05239,-0.033338 -0.0048,0.00476 -0.0095,0.00953 0,0 0,0.00476 0.02381,0.066675 0.02857,0.142875 0,0.2667 -0.157163,0.4619625 -0.157162,0.2000249 -0.3048,0.2000249 -0.1524,0 -0.157162,-0.2333624 0.0048,-0.1905 0.09525,-0.3857625 0.09049,-0.1905 0.219075,-0.28575 0,-0.00476 0.0048,-0.00476 0.02858,-0.023813 0.0381,-0.033338 0.01429,-0.00953 0.01429,-0.023813 v -0.00476 q 0,-0.00953 0,-0.028575 0.0048,-0.023813 0.01429,-0.0381 0.0095,-0.01905 0.02858,-0.01905 0.05239,0 0.157163,0.104775 0.104775,0.09525 0.271462,0.2047875 0.17145,0.104775 0.409575,0.104775 0.1143,0 0.161925,-0.01905 0.0381,-0.00953 0.07144,-0.00953 z"
           style="font-size:4.7625px;font-family:Bacalisties;-inkscape-font-specification:Bacalisties;text-align:center;text-anchor:middle;stroke-width:0.1;fill:#b4befe;fill-opacity:1;stroke:#b4befe;stroke-opacity:1;stroke-dasharray:none"
           id="path3619" />
        <path
           d="m 93.173929,2.763973 q 0.01429,0 0.09049,-0.09525 0.100012,-0.1143 0.36195,-0.5191125 0.2667,-0.4048125 0.504825,-0.8715375 0.242887,-0.47148745 0.242887,-0.72866244 0,-0.0142875 0,-0.01905 0,-0.009525 -0.0095,-0.009525 -0.109537,0 -0.309562,0.30479998 -0.195263,0.30003746 -0.40005,0.70484996 -0.200025,0.4048125 -0.3429,0.762 -0.142875,0.352425 -0.142875,0.4572 v 0.00476 q 0,0.00476 0,0.00953 0,0 0.0048,0 z m 1.357313,0.052388 q 0.0048,0 0.0048,0 0.0048,0.00476 0.0048,0.00953 0,0.047625 -0.1524,0.219075 -0.147638,0.17145 -0.371475,0.3714749 -0.219075,0.200025 -0.4572,0.3476625 -0.233363,0.1476375 -0.409575,0.1476375 -0.03334,0 -0.100013,-0.023813 -0.06191,-0.023813 -0.1143,-0.123825 -0.05715,-0.1000125 -0.05715,-0.314325 0,-0.5048249 0.28575,-1.2239624 0.290513,-0.7239 0.6477,-1.27634995 0.357188,-0.55721248 0.5715,-0.55721248 0.08096,0 0.08572,0.15239999 0,0.2047875 -0.238125,0.69056244 -0.233362,0.485775 -0.5334,0.9477375 -0.295275,0.4619625 -0.509587,0.657225 -0.06667,0.066675 -0.1143,0.2714625 -0.04762,0.2047875 -0.04762,0.3809999 v 0.023813 q 0,0.033338 0.0048,0.104775 0.0095,0.071438 0.04286,0.1285875 0.03334,0.061913 0.104775,0.061913 0.20955,0 0.471487,-0.1905 0.261938,-0.1857375 0.485775,-0.4048124 0.223838,-0.2143125 0.333375,-0.3381375 0.05715,-0.061913 0.06191,-0.061913 z"
           style="font-size:4.7625px;font-family:Bacalisties;-inkscape-font-specification:Bacalisties;text-align:center;text-anchor:middle;stroke-width:0.1;fill:#b4befe;fill-opacity:1;stroke:#b4befe;stroke-opacity:1;stroke-dasharray:none"
           id="path3621" />
        <path
           d="m 94.555055,3.3497605 q 0.01905,-0.00476 0.09049,-0.09525 0.0762,-0.085725 0.161925,-0.2143125 0.08572,-0.123825 0.147637,-0.2333625 0.06668,-0.1143 0.07144,-0.1666875 -0.0048,-0.01905 -0.02381,-0.028575 -0.01429,-0.014288 -0.03334,-0.014288 -0.08096,0 -0.180975,0.13335 -0.100013,0.1285875 -0.17145,0.3000375 -0.07144,0.17145 -0.07144,0.3000375 0,0.01905 0.0095,0.01905 z m 2.109788,-0.5334 q 0.01429,0 0.02857,0.00476 0.0048,0.00476 0.0048,0.00476 0,0.00476 0,0.00953 0,0.01905 -0.17145,0.2905125 -0.17145,0.276225 -0.414337,0.6191249 -0.238125,0.3429 -0.471488,0.6048375 -0.2286,0.2667 -0.3429,0.2667 -0.04762,0 -0.09049,-0.01905 -0.09525,-0.071438 -0.09525,-0.3000375 v -0.023813 q 0,-0.4143375 0.214312,-1.0525124 0.219075,-0.6334125 0.500063,-1.266825 0.28575,-0.6334125 0.51435,-1.08584995 0.233362,-0.45243748 0.28575,-0.52863748 -0.04286,0.0428625 -0.2667,0.38576249 -0.219075,0.34289994 -0.500063,0.78581244 -0.276225,0.4429125 -0.490537,0.8001 -0.20955,0.352425 -0.20955,0.3857625 0,0.014288 0.0095,0.042863 0,0.01905 0.0048,0.0381 0.0048,0.01905 0.0048,0.033338 0,0.00476 0,0.00953 0,0.00476 -0.0048,0.00953 h -0.0048 q -0.0048,0.00476 -0.0095,0.00476 -0.0095,0 -0.01905,-0.014288 -0.0095,-0.014288 -0.01429,-0.028575 -0.0048,-0.014288 -0.0095,-0.01905 -0.0048,-0.00953 -0.0095,-0.00953 -0.0048,0 -0.0381,0.05715 -0.05715,0.1000125 -0.166687,0.257175 -0.109538,0.161925 -0.233363,0.295275 -0.119062,0.1381124 -0.20955,0.1381124 -0.08572,0 -0.08572,-0.2047874 0,-0.1476375 0.06191,-0.3381375 0.05715,-0.1905 0.180975,-0.3286125 0.123825,-0.142875 0.309562,-0.142875 h 0.02858 q 0.0762,0 0.13335,0.0762 0.0095,0 0.08573,-0.1285875 0.08096,-0.13335 0.20955,-0.352425 0.223838,-0.381 0.509588,-0.8524875 0.28575,-0.47148744 0.538162,-0.82867493 0.252413,-0.36194999 0.357188,-0.36194999 0.02381,0.0047625 0.0381,0.028575 0.01905,0.01905 0.01905,0.047625 0,0.0333375 -0.223838,0.50482498 -0.238125,0.49053744 -0.557212,1.20967494 -0.319088,0.714375 -0.5715,1.4144625 -0.252413,0.7048499 -0.252413,1.1048999 0,0.161925 0.06668,0.161925 0.104775,0 0.328613,-0.2714625 0.223837,-0.2714625 0.461962,-0.6143625 0.242888,-0.3428999 0.404813,-0.5905499 0.1524,-0.2286 0.161925,-0.2286 z"
           style="font-size:4.7625px;font-family:Bacalisties;-inkscape-font-specification:Bacalisties;text-align:center;text-anchor:middle;stroke-width:0.1;fill:#b4befe;fill-opacity:1;stroke:#b4befe;stroke-opacity:1;stroke-dasharray:none"
           id="path3623" />
      </g>
      <path
         style="fill:none;stroke:#b4befe;stroke-width:0.2;stroke-linecap:round;stroke-linejoin:round;stroke-dasharray:none;stroke-opacity:1"
         d="m 84.5112,2.8680862 c 0,0 -1.987493,0.7256417 -3.029314,0.8076714 C 75.349015,4.1586446 66.013091,2.9330612 58.281016,2.8697702 51.703501,2.8159302 40.111183,3.4896469 31.344607,3.6614786 14.601852,3.9896496 1.6724254,3.1083712 1.6724254,3.1083712"
         id="path656-8"
         sodipodi:nodetypes="csssc" />
      <path
         style="fill:none;stroke:#b4befe;stroke-width:0.2;stroke-linecap:round;stroke-linejoin:round;stroke-dasharray:none;stroke-opacity:1"
         d="m 95.260537,4.5606523 c 0.09917,0.02809 0.220353,-0.05944 0.411444,-0.299736 0.454341,-0.5713297 1.112489,-1.6157241 1.359912,-1.9332898 0.499137,-0.6406406 1.177885,-0.7359709 1.716761,-0.540327 1.487526,0.54006 2.643026,1.8670791 4.645296,1.6167374 4.72451,-0.5906997 11.94549,-0.26332 11.94549,-0.26332"
         id="path2072"
         sodipodi:nodetypes="cssssc" />
    </g>
  </g>
</svg>
