<svg xmlns="http://www.w3.org/2000/svg" width="440" height="20" viewBox="0 0 116.417 5.292"><g style="fill:#7287fd;fill-opacity:1;stroke:#7287fd;stroke-opacity:1;stroke-width:.1;stroke-dasharray:none"><path d="M84.559 4.026h.004q.096 0 .22-.124.123-.119.242-.276.12-.157.196-.29.076-.13.076-.148 0-.005-.005-.005-.038 0-.233.124-.196.124-.377.305-.18.18-.18.362 0 .023.018.038.015.014.039.014zM85.706.392q-.085 0-.271.324t-.381.757q-.195.429-.338.8-.138.372-.138.462 0 .01.01.01.056 0 .237-.252.181-.253.386-.63.205-.375.357-.766.153-.395.153-.671 0-.034-.01-.034zm.834 2.424q0 .01-.153.038-.304.053-.78.21-.072.024-.11.062-.034.043-.081.133-.005.015-.014.029-.477.848-.815.848h-.014q-.057 0-.11-.048-.047-.057-.047-.12 0-.175.247-.442.253-.262.6-.433.115-.062.167-.205.057-.138.072-.272.019-.133.019-.157 0-.057-.02-.095-.019-.043-.061-.043-.11 0-.253.138-.138.134-.276.324-.138.186-.257.362-.095.138-.162.229-.067.095-.095.095-.034 0-.062-.057-.029-.053-.029-.157 0-.277.157-.772.162-.5.396-1.01.233-.514.466-.876.238-.362.39-.362.1 0 .1.172 0 .252-.2.757-.194.5-.47.971-.272.472-.53.681-.061.053-.095.153-.033.1-.047.19-.01.09-.01.11v.005l.038-.058q.077-.123.243-.357.167-.228.358-.428.195-.2.342-.2.196 0 .196.3-.01.233-.09.457l.018-.005q.095-.029.381-.1.29-.071.529-.071h.052q0 .004.005.004z" style="font-size:4.7625px;font-family:Bacalisties;-inkscape-font-specification:Bacalisties;text-align:center;text-anchor:middle;stroke-width:.1;fill:#7287fd;fill-opacity:1;stroke:#7287fd;stroke-opacity:1;stroke-dasharray:none" transform="translate(-.298 .313)"/><path d="M86.554 3.393q.052 0 .129-.081.08-.081.143-.22.061-.138.061-.304v-.024q0-.024-.01-.052-.009-.034-.028-.058-.014-.023-.047-.023-.043 0-.12.123-.07.12-.128.272-.057.157-.057.262 0 .1.057.105zm1.281-.586q.043 0 .043.019 0 .01-.024.024-.024.019-.08.033-.058.014-.163.014-.243 0-.395-.076-.148-.071-.214-.128-.038-.034-.053-.034l-.01.01v.004q.025.067.03.143 0 .267-.158.462-.157.2-.305.2-.152 0-.157-.233.005-.19.096-.386.09-.19.219-.286 0-.004.004-.004l.039-.034q.014-.01.014-.023v-.034q.005-.024.014-.038.01-.019.029-.019.052 0 .157.105.105.095.271.205.172.104.41.104.114 0 .162-.019.038-.01.071-.01z" style="font-size:4.7625px;font-family:Bacalisties;-inkscape-font-specification:Bacalisties;text-align:center;text-anchor:middle;stroke-width:.1;fill:#7287fd;fill-opacity:1;stroke:#7287fd;stroke-opacity:1;stroke-dasharray:none" transform="translate(-.298 .313)"/><path d="M87.711 4.074q.096-.01.215-.115.119-.104.21-.233.09-.129.094-.205v-.019h-.004q-.02 0-.1.076-.081.077-.177.177-.095.104-.166.195-.076.09-.076.119zm.21-1.305q0 .019.014.019.034 0 .167-.072.133-.076.286-.176.157-.105.271-.2.114-.095.114-.138 0-.029-.028-.029h-.01q-.071 0-.271.11-.195.105-.372.248-.171.138-.171.238zm1.557.047q.024 0 .043.005 0 .005-.076.029-.129.038-.41.157-.28.124-.643.367-.019.271-.152.452t-.286.271q-.152.091-.214.091-.057 0-.095-.038-.029-.033-.029-.076v-.02q0-.095.124-.223.119-.129.257-.248.095-.086.162-.152.067-.067.067-.1 0-.038-.053-.09-.047-.048-.119-.106-.1-.076-.19-.171-.086-.09-.086-.2 0-.19.181-.348.186-.157.41-.252.228-.1.357-.1.143 0 .157.114 0 .067-.133.195-.134.129-.324.258-.186.128-.367.2-.01.004-.014.004-.048.02-.048.039 0 .038.1.104.067.053.143.124.076.072.124.172h.005q0-.005.004-.005l.12-.067q.123-.067.304-.157t.357-.162q.181-.071.286-.071.02 0 .038.004z" style="font-size:4.7625px;font-family:Bacalisties;-inkscape-font-specification:Bacalisties;text-align:center;text-anchor:middle;stroke-width:.1;fill:#7287fd;fill-opacity:1;stroke:#7287fd;stroke-opacity:1;stroke-dasharray:none" transform="translate(-.298 .313)"/><path d="M90.869.487q-.114 0-.324.33-.205.323-.42.752-.213.423-.366.776-.152.352-.152.4 0 .005.005.005.014 0 .214-.281.2-.281.448-.667.252-.39.443-.748.195-.357.195-.505 0-.033-.015-.047-.014-.015-.028-.015zm.862 2.325q.01 0 .01.004 0 .005-.086.105-.081.105-.215.229-.128.128-.28.224-.153.095-.296.1-.11 0-.171-.067-.057-.062-.09-.162-.03-.095-.044-.19-.019-.11-.047-.186-.024-.072-.086-.072-.1 0-.281.2-.176.205-.367.443-.157.196-.28.338-.125.143-.182.143-.024 0-.043-.01-.061-.056-.061-.209 0-.305.19-.857.19-.548.467-1.11.28-.566.562-.962.285-.4.466-.4.11 0 .11.124v.01q0 .314-.448 1.057-.447.738-.924 1.267-.014.019-.028.033-.038.038-.057.062-.02.028-.038.071-.015.048-.034.134-.095.457-.095.566 0 .02.005.034v.024q.014 0 .066-.067.053-.062.129-.162.124-.167.286-.362.162-.195.324-.343.166-.148.29-.148.105 0 .148.105.047.105.076.238.029.143.076.253.053.114.172.114.085 0 .228-.119.143-.114.286-.248l.162-.147q.071-.057.1-.057z" style="font-size:4.7625px;font-family:Bacalisties;-inkscape-font-specification:Bacalisties;text-align:center;text-anchor:middle;stroke-width:.1;fill:#7287fd;fill-opacity:1;stroke:#7287fd;stroke-opacity:1;stroke-dasharray:none" transform="translate(-.298 .313)"/><path d="M91.736 3.393q.052 0 .128-.081.081-.081.143-.22.062-.138.062-.304v-.024q0-.024-.01-.052-.009-.034-.028-.058-.014-.023-.048-.023-.043 0-.119.123-.071.12-.128.272-.057.157-.057.262 0 .1.057.105zm1.28-.586q.044 0 .044.019 0 .01-.024.024-.024.019-.081.033-.057.014-.162.014-.243 0-.395-.076-.148-.071-.215-.128-.038-.034-.052-.034l-.01.01v.004q.024.067.029.143 0 .267-.157.462-.157.2-.305.2-.152 0-.157-.233.005-.19.095-.386.09-.19.22-.286 0-.004.004-.004.029-.024.038-.034.014-.01.014-.023v-.034q.005-.024.015-.038.01-.019.028-.019.053 0 .157.105.105.095.272.205.171.104.41.104.114 0 .161-.019.038-.01.072-.01z" style="font-size:4.7625px;font-family:Bacalisties;-inkscape-font-specification:Bacalisties;text-align:center;text-anchor:middle;stroke-width:.1;fill:#7287fd;fill-opacity:1;stroke:#7287fd;stroke-opacity:1;stroke-dasharray:none" transform="translate(-.298 .313)"/><path d="M93.174 2.764q.014 0 .09-.095.1-.115.362-.52.267-.404.505-.87.243-.472.243-.73V.53q0-.01-.01-.01-.109 0-.309.306-.195.3-.4.704-.2.405-.343.762-.143.353-.143.458v.014h.005zm1.357.052h.005q.005.005.005.01 0 .048-.153.219-.147.171-.371.371-.22.2-.457.348-.234.148-.41.148-.033 0-.1-.024-.062-.024-.114-.124-.057-.1-.057-.314 0-.505.285-1.224.291-.724.648-1.277.357-.557.572-.557.08 0 .085.153 0 .204-.238.69-.233.486-.533.948-.295.462-.51.657-.066.067-.114.272-.048.204-.048.38v.024q0 .034.005.105.01.072.043.129.033.062.105.062.21 0 .471-.19.262-.187.486-.406.224-.214.333-.338.058-.062.062-.062z" style="font-size:4.7625px;font-family:Bacalisties;-inkscape-font-specification:Bacalisties;text-align:center;text-anchor:middle;stroke-width:.1;fill:#7287fd;fill-opacity:1;stroke:#7287fd;stroke-opacity:1;stroke-dasharray:none" transform="translate(-.298 .313)"/><path d="M94.555 3.35q.02-.005.09-.095.077-.086.162-.215.086-.124.148-.233.067-.114.072-.167-.005-.019-.024-.028-.015-.015-.034-.015-.08 0-.18.134-.1.128-.172.3-.071.171-.071.3 0 .019.009.019zm2.11-.534q.014 0 .028.005l.005.005v.01q0 .018-.171.29-.172.276-.415.619-.238.343-.471.605-.229.267-.343.267-.048 0-.09-.02-.096-.07-.096-.3v-.023q0-.415.215-1.053.219-.633.5-1.267.285-.633.514-1.086.233-.452.286-.528-.043.043-.267.386l-.5.785q-.276.443-.49.8-.21.353-.21.386 0 .015.01.043 0 .02.004.038.005.02.005.034v.01q0 .004-.005.009h-.005q-.004.004-.01.004-.009 0-.018-.014-.01-.014-.014-.028-.005-.015-.01-.02-.005-.009-.01-.009-.004 0-.038.057-.057.1-.166.257-.11.162-.234.296-.119.138-.21.138-.085 0-.085-.205 0-.148.062-.338.057-.19.181-.329.124-.143.31-.143h.028q.076 0 .134.076.009 0 .085-.128.081-.133.21-.353.224-.38.51-.852.285-.472.538-.829.252-.362.357-.362.024.005.038.029.019.019.019.048 0 .033-.224.504-.238.49-.557 1.21-.32.714-.572 1.415-.252.704-.252 1.104 0 .162.067.162.104 0 .328-.271.224-.272.462-.614.243-.343.405-.591.152-.229.162-.229z" style="font-size:4.7625px;font-family:Bacalisties;-inkscape-font-specification:Bacalisties;text-align:center;text-anchor:middle;stroke-width:.1;fill:#7287fd;fill-opacity:1;stroke:#7287fd;stroke-opacity:1;stroke-dasharray:none" transform="translate(-.298 .313)"/></g><path d="M84.511 2.868s-1.987.726-3.03.808c-6.132.483-15.468-.743-23.2-.806-6.577-.054-18.17.62-26.936.791-16.743.329-29.673-.553-29.673-.553M95.26 4.56c.1.029.22-.059.412-.3.454-.57 1.112-1.615 1.36-1.932.499-.641 1.178-.736 1.717-.54 1.487.54 2.643 1.866 4.645 1.616 4.724-.59 11.945-.263 11.945-.263" style="fill:none;stroke:#7287fd;stroke-width:.2;stroke-linecap:round;stroke-linejoin:round;stroke-dasharray:none;stroke-opacity:1" transform="translate(-.298 .313)"/></svg>